<?xml version="1.0" encoding="utf-8"?>
<!-- Generator: Adobe Illustrator 27.8.0, SVG Export Plug-In . SVG Version: 6.00 Build 0)  -->
<svg version="1.1" id="Capa_1" xmlns="http://www.w3.org/2000/svg" xmlns:xlink="http://www.w3.org/1999/xlink" x="0px" y="0px"
	 width="64px" height="64px" viewBox="0 0 64 64" style="enable-background:new 0 0 64 64;" xml:space="preserve">
<style type="text/css">
	.st0{fill:#FFFFFF;}
	.st1{fill:#FFFFFF;stroke:#738181;stroke-width:0.5896;stroke-miterlimit:10;}
	.st2{fill:none;stroke:#738181;stroke-width:0.7044;stroke-miterlimit:10;}
	.st3{opacity:0.8;fill:#FFFFFF;stroke:#738181;stroke-width:0.5896;stroke-miterlimit:10;}
	.st4{fill:#FAF3E8;}
	.st5{fill:#FFD366;}
	.st6{fill:none;stroke:#4C8785;stroke-width:0.3177;stroke-miterlimit:10;}
	.st7{fill:none;stroke:#4C8785;stroke-width:0.3177;stroke-linecap:round;stroke-linejoin:round;stroke-miterlimit:10;}
	.st8{fill:#C0DAD8;stroke:#4C8785;stroke-width:0.3347;stroke-miterlimit:10;}
	.st9{fill:#EAA42C;}
	.st10{fill:#3B706D;}
	.st11{fill:#F7A41E;}
	.st12{fill:none;stroke:#4C8785;stroke-width:0.3028;stroke-miterlimit:10;}
	.st13{fill:none;stroke:#4C8785;stroke-width:0.3177;stroke-linecap:round;stroke-miterlimit:10;}
	.st14{fill:#5D9E9B;}
	.st15{clip-path:url(#SVGID_00000018235030276679562490000009645724794831552407_);}
	.st16{fill:#4C8785;}
	.st17{fill:none;stroke:#4C8785;stroke-width:0.4217;stroke-miterlimit:10;}
	.st18{fill:#FFD1AE;}
	.st19{fill:none;stroke:#3B706D;stroke-width:0.4217;stroke-linecap:round;stroke-miterlimit:10;}
	.st20{fill:none;stroke:#C0DAD8;stroke-width:0.2618;stroke-miterlimit:10;}
	.st21{fill:none;stroke:#5B5B5B;stroke-width:0.75;stroke-miterlimit:10;}
	.st22{fill:none;stroke:#2E9E93;stroke-width:1.3171;stroke-linejoin:round;stroke-miterlimit:10;}
	.st23{fill:#2E9E93;}
	.st24{fill:none;stroke:#2E9E93;stroke-width:1.2704;stroke-linejoin:round;stroke-miterlimit:10;}
	.st25{clip-path:url(#SVGID_00000031192711519394452840000010812596284671174590_);}
	.st26{fill:#E9A32C;}
	.st27{fill:#D48112;}
	.st28{fill:#6E5336;}
	.st29{fill:none;stroke:#385C57;stroke-width:0.1456;stroke-miterlimit:10;}
	.st30{fill:#AF754E;}
	.st31{fill:#98633E;}
	.st32{fill:none;stroke:#2E9E93;stroke-width:2.178;stroke-linejoin:round;stroke-miterlimit:10;}
	.st33{clip-path:url(#SVGID_00000055689652626271768400000000261899822404371361_);}
	.st34{clip-path:url(#SVGID_00000140002839786521928610000008079378433040157067_);}
	.st35{fill:none;stroke:#2E9E93;stroke-miterlimit:10;}
	.st36{fill:#FFDC6E;}
	.st37{fill:none;stroke:#2E9E93;stroke-width:0.7343;stroke-linejoin:round;stroke-miterlimit:10;}
	.st38{fill:none;stroke:#2E9E93;stroke-width:0.7614;stroke-linejoin:round;stroke-miterlimit:10;}
	.st39{fill:none;stroke:#2E9E93;stroke-width:0.8249;stroke-linejoin:round;stroke-miterlimit:10;}
	.st40{fill:#D7E6E6;}
	.st41{fill:none;stroke:#4C8785;stroke-width:0.3629;stroke-miterlimit:10;}
	.st42{fill:none;stroke:#3B706D;stroke-width:0.3629;stroke-linecap:round;stroke-miterlimit:10;}
	.st43{fill:none;stroke:#C0DAD8;stroke-width:0.2253;stroke-miterlimit:10;}
	.st44{fill:none;stroke:#4C8785;stroke-width:0.3395;stroke-miterlimit:10;}
	.st45{fill:none;stroke:#4C8785;stroke-width:0.3395;stroke-linecap:round;stroke-linejoin:round;stroke-miterlimit:10;}
	.st46{fill:#C0DAD8;stroke:#4C8785;stroke-width:0.3577;stroke-miterlimit:10;}
	.st47{fill:none;stroke:#4C8785;stroke-width:0.3236;stroke-miterlimit:10;}
	.st48{fill:none;stroke:#4C8785;stroke-width:0.3395;stroke-linecap:round;stroke-miterlimit:10;}
	.st49{fill:none;stroke:#385C57;stroke-width:0.155;stroke-miterlimit:10;}
	.st50{fill:none;stroke:#2E9E93;stroke-width:1.2404;stroke-linejoin:round;stroke-miterlimit:10;}
	.st51{fill:none;stroke:#2E9E93;stroke-width:1.2861;stroke-linejoin:round;stroke-miterlimit:10;}
	.st52{fill:none;stroke:#2E9E93;stroke-width:1.3933;stroke-linejoin:round;stroke-miterlimit:10;}
	.st53{fill:none;stroke:#2E9E93;stroke-width:0.8008;stroke-linejoin:round;stroke-miterlimit:10;}
	.st54{fill:none;stroke:#2E9E93;stroke-width:0.7885;stroke-linejoin:round;stroke-miterlimit:10;}
	.st55{fill:none;stroke:#2E9E93;stroke-linejoin:round;stroke-miterlimit:10;}
	.st56{fill:none;stroke:#2E9E93;stroke-width:1.2181;stroke-linejoin:round;stroke-miterlimit:10;}
	.st57{fill:none;stroke:#2E9E93;stroke-width:2.3498;stroke-linejoin:round;stroke-miterlimit:10;}
	.st58{fill:none;stroke:#2E9E93;stroke-width:2.4365;stroke-linejoin:round;stroke-miterlimit:10;}
	.st59{fill:none;stroke:#2E9E93;stroke-width:2.3955;stroke-linejoin:round;stroke-miterlimit:10;}
	.st60{fill:none;stroke:#2E9E93;stroke-width:2.6396;stroke-linejoin:round;stroke-miterlimit:10;}
	.st61{fill:none;stroke:#2E9E93;stroke-width:2.5627;stroke-linejoin:round;stroke-miterlimit:10;}
	.st62{fill:none;stroke:#2E9E93;stroke-width:2.5231;stroke-linejoin:round;stroke-miterlimit:10;}
	.st63{fill:none;stroke:#2E9E93;stroke-width:2.2817;stroke-linejoin:round;stroke-miterlimit:10;}
	.st64{fill:none;stroke:#2E9E93;stroke-width:2;stroke-linejoin:round;stroke-miterlimit:10;}
	.st65{fill:none;stroke:#2E9E93;stroke-width:2.3829;stroke-linejoin:round;stroke-miterlimit:10;}
	.st66{fill:none;stroke:#2E9E93;stroke-width:2.2222;stroke-linejoin:round;stroke-miterlimit:10;}
	.st67{fill:none;stroke:#2E9E93;stroke-width:0.7447;stroke-linejoin:round;stroke-miterlimit:10;}
	.st68{fill:none;stroke:#2E9E93;stroke-width:0.6944;stroke-linejoin:round;stroke-miterlimit:10;}
	.st69{fill:none;stroke:#2E9E93;stroke-width:0.713;stroke-linejoin:round;stroke-miterlimit:10;}
	.st70{fill:none;stroke:#2E9E93;stroke-width:0.625;stroke-linejoin:round;stroke-miterlimit:10;}
</style>
<g>
	<g>
		<g>
			<g>
				<path class="st23" d="M30.25,46.56c-0.34,0-0.67-0.14-0.9-0.42L16.04,30.22c-0.2-0.24-0.3-0.55-0.27-0.86
					c0.03-0.31,0.18-0.6,0.42-0.8l26.79-22.4c0.5-0.42,1.24-0.35,1.66,0.15l13.31,15.92c0.2,0.24,0.3,0.55,0.27,0.86
					c-0.03,0.31-0.18,0.6-0.42,0.8l-26.79,22.4C30.79,46.47,30.52,46.56,30.25,46.56z M18.59,29.61L30.4,43.73l24.99-20.9
					L43.58,8.72L18.59,29.61z"/>
			</g>
			<g>
				
					<rect x="29.52" y="20.84" transform="matrix(0.7672 -0.6415 0.6415 0.7672 -12.8835 26.9618)" class="st23" width="2.35" height="20.78"/>
			</g>
			<g>
				
					<rect x="42.25" y="10.2" transform="matrix(0.7671 -0.6415 0.6415 0.7671 -3.0946 32.6485)" class="st23" width="2.35" height="20.78"/>
			</g>
		</g>
		<g>
			<path class="st23" d="M24.77,49.41c-4.13,0-8.86-5.51-9.39-6.14c-0.17-0.2-4.11-4.96-3.42-10.11c0.23-1.74,1.1-2.67,1.79-3.15
				c1.71-1.18,3.87-0.73,4.11-0.67l-0.6,2.57c-0.34-0.07-1.38-0.17-2.02,0.28c-0.36,0.25-0.58,0.69-0.67,1.32
				c-0.53,3.99,2.79,8.03,2.83,8.07c1.69,2.01,5.17,5.2,7.36,5.2c0,0,0.01,0,0.01,0c0.88-0.01,1.52-0.23,1.89-0.67
				c0.58-0.68,0.55-1.83,0.49-2.22l2.61-0.42c0.04,0.26,0.38,2.61-1.08,4.33c-0.61,0.73-1.79,1.6-3.9,1.61
				C24.79,49.41,24.78,49.41,24.77,49.41z"/>
		</g>
	</g>
	<g>
		<circle class="st23" cx="7.95" cy="46.2" r="2.17"/>
	</g>
	<g>
		<circle class="st23" cx="15.92" cy="50.69" r="2.17"/>
	</g>
	<g>
		<circle class="st23" cx="7.95" cy="54.37" r="2.17"/>
	</g>
</g>
</svg>
