<?xml version="1.0" encoding="utf-8"?>
<!-- Generator: Adobe Illustrator 27.8.0, SVG Export Plug-In . SVG Version: 6.00 Build 0)  -->
<svg version="1.1" id="Capa_1" xmlns="http://www.w3.org/2000/svg" xmlns:xlink="http://www.w3.org/1999/xlink" x="0px" y="0px"
	 width="64px" height="64px" viewBox="0 0 64 64" style="enable-background:new 0 0 64 64;" xml:space="preserve">
<style type="text/css">
	.st0{fill:#FFFFFF;}
	.st1{fill:#FFFFFF;stroke:#738181;stroke-width:0.5896;stroke-miterlimit:10;}
	.st2{fill:none;stroke:#738181;stroke-width:0.7044;stroke-miterlimit:10;}
	.st3{opacity:0.8;fill:#FFFFFF;stroke:#738181;stroke-width:0.5896;stroke-miterlimit:10;}
	.st4{fill:#FAF3E8;}
	.st5{fill:#FFD366;}
	.st6{fill:none;stroke:#4C8785;stroke-width:0.3177;stroke-miterlimit:10;}
	.st7{fill:none;stroke:#4C8785;stroke-width:0.3177;stroke-linecap:round;stroke-linejoin:round;stroke-miterlimit:10;}
	.st8{fill:#C0DAD8;stroke:#4C8785;stroke-width:0.3347;stroke-miterlimit:10;}
	.st9{fill:#EAA42C;}
	.st10{fill:#3B706D;}
	.st11{fill:#F7A41E;}
	.st12{fill:none;stroke:#4C8785;stroke-width:0.3028;stroke-miterlimit:10;}
	.st13{fill:none;stroke:#4C8785;stroke-width:0.3177;stroke-linecap:round;stroke-miterlimit:10;}
	.st14{fill:#5D9E9B;}
	.st15{clip-path:url(#SVGID_00000038378902802884932970000006818579089682367419_);}
	.st16{fill:#4C8785;}
	.st17{fill:none;stroke:#4C8785;stroke-width:0.4217;stroke-miterlimit:10;}
	.st18{fill:#FFD1AE;}
	.st19{fill:none;stroke:#3B706D;stroke-width:0.4217;stroke-linecap:round;stroke-miterlimit:10;}
	.st20{fill:none;stroke:#C0DAD8;stroke-width:0.2618;stroke-miterlimit:10;}
	.st21{fill:none;stroke:#5B5B5B;stroke-width:0.75;stroke-miterlimit:10;}
	.st22{fill:none;stroke:#2E9E93;stroke-width:1.3171;stroke-linejoin:round;stroke-miterlimit:10;}
	.st23{fill:#2E9E93;}
	.st24{fill:none;stroke:#2E9E93;stroke-width:1.2704;stroke-linejoin:round;stroke-miterlimit:10;}
	.st25{clip-path:url(#SVGID_00000137822361516658447110000015472743972347973028_);}
	.st26{fill:#E9A32C;}
	.st27{fill:#D48112;}
	.st28{fill:#6E5336;}
	.st29{fill:none;stroke:#385C57;stroke-width:0.1456;stroke-miterlimit:10;}
	.st30{fill:#AF754E;}
	.st31{fill:#98633E;}
	.st32{fill:none;stroke:#2E9E93;stroke-width:2.178;stroke-linejoin:round;stroke-miterlimit:10;}
	.st33{clip-path:url(#SVGID_00000016756974790444127720000000176049736273596344_);}
	.st34{clip-path:url(#SVGID_00000174591298954927872410000007432506482731156877_);}
	.st35{fill:none;stroke:#2E9E93;stroke-miterlimit:10;}
	.st36{fill:#FFDC6E;}
	.st37{fill:none;stroke:#2E9E93;stroke-width:0.7343;stroke-linejoin:round;stroke-miterlimit:10;}
	.st38{fill:none;stroke:#2E9E93;stroke-width:0.7614;stroke-linejoin:round;stroke-miterlimit:10;}
	.st39{fill:none;stroke:#2E9E93;stroke-width:0.8249;stroke-linejoin:round;stroke-miterlimit:10;}
	.st40{fill:#D7E6E6;}
	.st41{fill:none;stroke:#4C8785;stroke-width:0.3629;stroke-miterlimit:10;}
	.st42{fill:none;stroke:#3B706D;stroke-width:0.3629;stroke-linecap:round;stroke-miterlimit:10;}
	.st43{fill:none;stroke:#C0DAD8;stroke-width:0.2253;stroke-miterlimit:10;}
	.st44{fill:none;stroke:#4C8785;stroke-width:0.3395;stroke-miterlimit:10;}
	.st45{fill:none;stroke:#4C8785;stroke-width:0.3395;stroke-linecap:round;stroke-linejoin:round;stroke-miterlimit:10;}
	.st46{fill:#C0DAD8;stroke:#4C8785;stroke-width:0.3577;stroke-miterlimit:10;}
	.st47{fill:none;stroke:#4C8785;stroke-width:0.3236;stroke-miterlimit:10;}
	.st48{fill:none;stroke:#4C8785;stroke-width:0.3395;stroke-linecap:round;stroke-miterlimit:10;}
	.st49{fill:none;stroke:#385C57;stroke-width:0.155;stroke-miterlimit:10;}
	.st50{fill:none;stroke:#2E9E93;stroke-width:1.2404;stroke-linejoin:round;stroke-miterlimit:10;}
	.st51{fill:none;stroke:#2E9E93;stroke-width:1.2861;stroke-linejoin:round;stroke-miterlimit:10;}
	.st52{fill:none;stroke:#2E9E93;stroke-width:1.3933;stroke-linejoin:round;stroke-miterlimit:10;}
	.st53{fill:none;stroke:#2E9E93;stroke-width:0.8008;stroke-linejoin:round;stroke-miterlimit:10;}
	.st54{fill:none;stroke:#2E9E93;stroke-width:0.7885;stroke-linejoin:round;stroke-miterlimit:10;}
	.st55{fill:none;stroke:#2E9E93;stroke-linejoin:round;stroke-miterlimit:10;}
	.st56{fill:none;stroke:#2E9E93;stroke-width:1.2181;stroke-linejoin:round;stroke-miterlimit:10;}
	.st57{fill:none;stroke:#2E9E93;stroke-width:2.3498;stroke-linejoin:round;stroke-miterlimit:10;}
	.st58{fill:none;stroke:#2E9E93;stroke-width:2.4365;stroke-linejoin:round;stroke-miterlimit:10;}
	.st59{fill:none;stroke:#2E9E93;stroke-width:2.3955;stroke-linejoin:round;stroke-miterlimit:10;}
	.st60{fill:none;stroke:#2E9E93;stroke-width:2.6396;stroke-linejoin:round;stroke-miterlimit:10;}
	.st61{fill:none;stroke:#2E9E93;stroke-width:2.5627;stroke-linejoin:round;stroke-miterlimit:10;}
	.st62{fill:none;stroke:#2E9E93;stroke-width:2.5231;stroke-linejoin:round;stroke-miterlimit:10;}
	.st63{fill:none;stroke:#2E9E93;stroke-width:2.2817;stroke-linejoin:round;stroke-miterlimit:10;}
	.st64{fill:none;stroke:#2E9E93;stroke-width:2;stroke-linejoin:round;stroke-miterlimit:10;}
	.st65{fill:none;stroke:#2E9E93;stroke-width:2.3829;stroke-linejoin:round;stroke-miterlimit:10;}
	.st66{fill:none;stroke:#2E9E93;stroke-width:2.2222;stroke-linejoin:round;stroke-miterlimit:10;}
	.st67{fill:none;stroke:#2E9E93;stroke-width:0.7447;stroke-linejoin:round;stroke-miterlimit:10;}
	.st68{fill:none;stroke:#2E9E93;stroke-width:0.6944;stroke-linejoin:round;stroke-miterlimit:10;}
	.st69{fill:none;stroke:#2E9E93;stroke-width:0.713;stroke-linejoin:round;stroke-miterlimit:10;}
	.st70{fill:none;stroke:#2E9E93;stroke-width:0.625;stroke-linejoin:round;stroke-miterlimit:10;}
</style>
<g>
	<g>
		<g>
			<path class="st23" d="M12.58,53.11c-0.56,0-1.06-0.39-1.19-0.95L6.01,28.55c-0.08-0.34-0.01-0.7,0.2-0.98
				c0.2-0.28,0.52-0.47,0.86-0.5l49.6-5.36c0.36-0.04,0.71,0.08,0.97,0.33c0.26,0.25,0.4,0.6,0.37,0.96l-1.6,25.44
				c-0.04,0.6-0.51,1.09-1.12,1.14l-42.63,3.52C12.64,53.11,12.61,53.11,12.58,53.11z M8.69,29.35l4.84,21.25l40.53-3.35l1.44-22.95
				L8.69,29.35z"/>
		</g>
		<g>
			<path class="st23" d="M20.31,47.84c-1.98,0-3.78-1.35-4.27-3.36c-0.56-2.35,0.89-4.73,3.24-5.29c2.35-0.56,4.73,0.89,5.29,3.24
				c0.56,2.35-0.89,4.73-3.24,5.29C20.99,47.81,20.65,47.84,20.31,47.84z M20.31,41.51c-0.15,0-0.3,0.02-0.46,0.05
				c-1.05,0.25-1.69,1.31-1.44,2.35s1.31,1.69,2.35,1.44c1.05-0.25,1.69-1.31,1.44-2.35C21.99,42.11,21.19,41.51,20.31,41.51z"/>
		</g>
		<g>
			<path class="st23" d="M32.99,37.7c-1.98,0-3.78-1.35-4.27-3.36c-0.56-2.35,0.89-4.72,3.24-5.29c1.14-0.27,2.32-0.09,3.32,0.53
				c1,0.61,1.7,1.58,1.97,2.72c0.56,2.35-0.89,4.72-3.24,5.29C33.67,37.66,33.33,37.7,32.99,37.7z M33,31.36
				c-0.15,0-0.31,0.02-0.46,0.05c-1.05,0.25-1.69,1.31-1.44,2.35s1.31,1.69,2.35,1.44c1.05-0.25,1.69-1.31,1.44-2.35
				c-0.12-0.51-0.43-0.94-0.88-1.21C33.7,31.45,33.35,31.36,33,31.36z"/>
		</g>
		<g>
			<path class="st23" d="M46.68,43.27c-0.66,0-1.31-0.18-1.89-0.54c-0.82-0.51-1.4-1.3-1.63-2.24c-0.47-1.94,0.74-3.9,2.68-4.37
				c0.94-0.22,1.91-0.07,2.74,0.43c0.82,0.51,1.4,1.3,1.63,2.24c0.47,1.94-0.74,3.9-2.68,4.37C47.25,43.23,46.96,43.27,46.68,43.27z
				 M46.69,38.46c-0.09,0-0.19,0.01-0.28,0.03c-0.64,0.15-1.03,0.79-0.88,1.43c0.07,0.31,0.26,0.57,0.53,0.73
				c0.27,0.16,0.59,0.22,0.9,0.14c0.64-0.15,1.03-0.79,0.88-1.43c-0.07-0.31-0.26-0.57-0.53-0.73
				C47.11,38.52,46.9,38.46,46.69,38.46z"/>
		</g>
		<g>
			<path class="st23" d="M8.41,28.45l-2.41-0.33c1.7-12.49,9.12-15.71,9.43-15.84c0.23-0.1,0.5-0.12,0.74-0.06l40.91,9.52
				l-0.55,2.37l-40.49-9.42C14.71,15.41,9.73,18.73,8.41,28.45z"/>
		</g>
	</g>
</g>
</svg>
