<?xml version="1.0" encoding="utf-8"?>
<!-- Generator: Adobe Illustrator 27.8.0, SVG Export Plug-In . SVG Version: 6.00 Build 0)  -->
<svg version="1.1" id="Capa_1" xmlns="http://www.w3.org/2000/svg" xmlns:xlink="http://www.w3.org/1999/xlink" x="0px" y="0px"
	 width="64px" height="64px" viewBox="0 0 64 64" style="enable-background:new 0 0 64 64;" xml:space="preserve">
<style type="text/css">
	.st0{fill:#FFFFFF;}
	.st1{fill:#FFFFFF;stroke:#738181;stroke-width:0.5896;stroke-miterlimit:10;}
	.st2{fill:none;stroke:#738181;stroke-width:0.7044;stroke-miterlimit:10;}
	.st3{opacity:0.8;fill:#FFFFFF;stroke:#738181;stroke-width:0.5896;stroke-miterlimit:10;}
	.st4{fill:#FAF3E8;}
	.st5{fill:#FFD366;}
	.st6{fill:none;stroke:#4C8785;stroke-width:0.3177;stroke-miterlimit:10;}
	.st7{fill:none;stroke:#4C8785;stroke-width:0.3177;stroke-linecap:round;stroke-linejoin:round;stroke-miterlimit:10;}
	.st8{fill:#C0DAD8;stroke:#4C8785;stroke-width:0.3347;stroke-miterlimit:10;}
	.st9{fill:#EAA42C;}
	.st10{fill:#3B706D;}
	.st11{fill:#F7A41E;}
	.st12{fill:none;stroke:#4C8785;stroke-width:0.3028;stroke-miterlimit:10;}
	.st13{fill:none;stroke:#4C8785;stroke-width:0.3177;stroke-linecap:round;stroke-miterlimit:10;}
	.st14{fill:#5D9E9B;}
	.st15{clip-path:url(#SVGID_00000137817365628378300690000003376971666373536655_);}
	.st16{fill:#4C8785;}
	.st17{fill:none;stroke:#4C8785;stroke-width:0.4217;stroke-miterlimit:10;}
	.st18{fill:#FFD1AE;}
	.st19{fill:none;stroke:#3B706D;stroke-width:0.4217;stroke-linecap:round;stroke-miterlimit:10;}
	.st20{fill:none;stroke:#C0DAD8;stroke-width:0.2618;stroke-miterlimit:10;}
	.st21{fill:none;stroke:#5B5B5B;stroke-width:0.75;stroke-miterlimit:10;}
	.st22{fill:none;stroke:#2E9E93;stroke-width:1.3171;stroke-linejoin:round;stroke-miterlimit:10;}
	.st23{fill:#2E9E93;}
	.st24{fill:none;stroke:#2E9E93;stroke-width:1.2704;stroke-linejoin:round;stroke-miterlimit:10;}
	.st25{clip-path:url(#SVGID_00000180355387915409401390000013389177799026024856_);}
	.st26{fill:#E9A32C;}
	.st27{fill:#D48112;}
	.st28{fill:#6E5336;}
	.st29{fill:none;stroke:#385C57;stroke-width:0.1456;stroke-miterlimit:10;}
	.st30{fill:#AF754E;}
	.st31{fill:#98633E;}
	.st32{fill:none;stroke:#2E9E93;stroke-width:2.178;stroke-linejoin:round;stroke-miterlimit:10;}
	.st33{clip-path:url(#SVGID_00000018958566456330436050000003961079108504619913_);}
	.st34{clip-path:url(#SVGID_00000072280989922404173730000003138961991800852638_);}
	.st35{fill:none;stroke:#2E9E93;stroke-miterlimit:10;}
	.st36{fill:#FFDC6E;}
	.st37{fill:none;stroke:#2E9E93;stroke-width:0.7343;stroke-linejoin:round;stroke-miterlimit:10;}
	.st38{fill:none;stroke:#2E9E93;stroke-width:0.7614;stroke-linejoin:round;stroke-miterlimit:10;}
	.st39{fill:none;stroke:#2E9E93;stroke-width:0.8249;stroke-linejoin:round;stroke-miterlimit:10;}
	.st40{fill:#D7E6E6;}
	.st41{fill:none;stroke:#4C8785;stroke-width:0.3629;stroke-miterlimit:10;}
	.st42{fill:none;stroke:#3B706D;stroke-width:0.3629;stroke-linecap:round;stroke-miterlimit:10;}
	.st43{fill:none;stroke:#C0DAD8;stroke-width:0.2253;stroke-miterlimit:10;}
	.st44{fill:none;stroke:#4C8785;stroke-width:0.3395;stroke-miterlimit:10;}
	.st45{fill:none;stroke:#4C8785;stroke-width:0.3395;stroke-linecap:round;stroke-linejoin:round;stroke-miterlimit:10;}
	.st46{fill:#C0DAD8;stroke:#4C8785;stroke-width:0.3577;stroke-miterlimit:10;}
	.st47{fill:none;stroke:#4C8785;stroke-width:0.3236;stroke-miterlimit:10;}
	.st48{fill:none;stroke:#4C8785;stroke-width:0.3395;stroke-linecap:round;stroke-miterlimit:10;}
	.st49{fill:none;stroke:#385C57;stroke-width:0.155;stroke-miterlimit:10;}
	.st50{fill:none;stroke:#2E9E93;stroke-width:1.2404;stroke-linejoin:round;stroke-miterlimit:10;}
	.st51{fill:none;stroke:#2E9E93;stroke-width:1.2861;stroke-linejoin:round;stroke-miterlimit:10;}
	.st52{fill:none;stroke:#2E9E93;stroke-width:1.3933;stroke-linejoin:round;stroke-miterlimit:10;}
	.st53{fill:none;stroke:#2E9E93;stroke-width:0.8008;stroke-linejoin:round;stroke-miterlimit:10;}
	.st54{fill:none;stroke:#2E9E93;stroke-width:0.7885;stroke-linejoin:round;stroke-miterlimit:10;}
	.st55{fill:none;stroke:#2E9E93;stroke-linejoin:round;stroke-miterlimit:10;}
	.st56{fill:none;stroke:#2E9E93;stroke-width:1.2181;stroke-linejoin:round;stroke-miterlimit:10;}
	.st57{fill:none;stroke:#2E9E93;stroke-width:2.3498;stroke-linejoin:round;stroke-miterlimit:10;}
	.st58{fill:none;stroke:#2E9E93;stroke-width:2.4365;stroke-linejoin:round;stroke-miterlimit:10;}
	.st59{fill:none;stroke:#2E9E93;stroke-width:2.3955;stroke-linejoin:round;stroke-miterlimit:10;}
	.st60{fill:none;stroke:#2E9E93;stroke-width:2.6396;stroke-linejoin:round;stroke-miterlimit:10;}
	.st61{fill:none;stroke:#2E9E93;stroke-width:2.5627;stroke-linejoin:round;stroke-miterlimit:10;}
	.st62{fill:none;stroke:#2E9E93;stroke-width:2.5231;stroke-linejoin:round;stroke-miterlimit:10;}
	.st63{fill:none;stroke:#2E9E93;stroke-width:2.2817;stroke-linejoin:round;stroke-miterlimit:10;}
	.st64{fill:none;stroke:#2E9E93;stroke-width:2;stroke-linejoin:round;stroke-miterlimit:10;}
	.st65{fill:none;stroke:#2E9E93;stroke-width:2.3829;stroke-linejoin:round;stroke-miterlimit:10;}
	.st66{fill:none;stroke:#2E9E93;stroke-width:2.2222;stroke-linejoin:round;stroke-miterlimit:10;}
	.st67{fill:none;stroke:#2E9E93;stroke-width:0.7447;stroke-linejoin:round;stroke-miterlimit:10;}
	.st68{fill:none;stroke:#2E9E93;stroke-width:0.6944;stroke-linejoin:round;stroke-miterlimit:10;}
	.st69{fill:none;stroke:#2E9E93;stroke-width:0.713;stroke-linejoin:round;stroke-miterlimit:10;}
	.st70{fill:none;stroke:#2E9E93;stroke-width:0.625;stroke-linejoin:round;stroke-miterlimit:10;}
</style>
<g>
	<g>
		<g>
			<g>
				<path class="st23" d="M47.01,58H36.4c-0.13,0-0.25-0.02-0.37-0.06c-0.16-0.05-15.58-4.92-12.42-20.49
					c0.07-0.28,1.4-4.9,7.49-11.3c1.42-1.63,3.75-4.95,3.8-6.72c0.07-2.77-1.08-11.89-1.09-11.99c-0.05-0.37,0.07-0.73,0.31-1.01
					C34.37,6.16,34.72,6,35.08,6H48.4c0.37,0,0.72,0.16,0.96,0.44s0.35,0.65,0.3,1.01c-0.01,0.09-1.23,9.21-1.16,11.98
					c0.05,1.77,2.38,5.09,3.83,6.76c6.05,6.37,7.38,10.98,7.43,11.18c0.01,0.03,0.01,0.06,0.02,0.08
					c3.17,15.56-12.26,20.44-12.42,20.49C47.26,57.98,47.13,58,47.01,58z M36.61,55.43h10.2c1.61-0.54,13.01-4.86,10.49-17.41
					c-0.13-0.42-1.52-4.5-6.85-10.11c-0.48-0.55-4.41-5.15-4.5-8.42c-0.06-2.29,0.64-8.18,0.99-10.93H36.53
					c0.33,2.75,0.99,8.64,0.93,10.93c-0.09,3.27-4.02,7.86-4.46,8.38c-5.63,5.92-6.88,10.14-6.9,10.18
					C23.56,50.56,34.98,54.89,36.61,55.43z"/>
			</g>
		</g>
		<g>
			<path class="st23" d="M20.96,58c-0.39,0-0.78-0.02-1.17-0.08c-2.24-0.29-4.02-1.41-5.02-3.14c-1-1.73-1.07-3.83-0.21-5.92
				c0.82-1.97,2.39-3.7,4.43-4.88c0.11-0.07,3.24-1.91,6.29-0.83l-0.84,2.38c-1.92-0.68-4.15,0.62-4.17,0.63
				c-1.58,0.91-2.77,2.21-3.38,3.67c-0.56,1.34-0.53,2.65,0.07,3.69c0.6,1.04,1.72,1.71,3.16,1.9c1.57,0.21,3.29-0.18,4.85-1.08
				c0.04-0.02,0.08-0.04,0.12-0.06c0.04-0.02,1.5-0.76,2.58-3.48l2.35,0.93c-1.36,3.44-3.36,4.59-3.83,4.82
				C24.53,57.5,22.71,58,20.96,58z"/>
		</g>
		<g>
			<rect x="24.84" y="36.28" class="st23" width="33.15" height="2.52"/>
		</g>
		<g>
			<path class="st23" d="M16.28,47.91c-8.44,0-14.34-7.02-14.59-7.33c-0.22-0.27-0.33-0.62-0.29-0.97s0.22-0.66,0.5-0.87
				c3.59-2.71,7.37-3.77,11.24-3.16c7.5,1.18,12.54,8.22,12.75,8.52l-2.09,1.48c-0.05-0.06-4.65-6.47-11.07-7.47
				c-2.74-0.42-5.46,0.2-8.1,1.86c1.93,1.87,6.53,5.61,12.23,5.36l0.12,2.56C16.74,47.9,16.51,47.91,16.28,47.91z"/>
		</g>
	</g>
	<g>
		<path class="st23" d="M54.88,32.82l-0.19-2.55c1.54-0.12,2.95-0.83,3.96-2s1.5-2.67,1.38-4.21c-0.12-1.54-0.83-2.95-2-3.96
			c-1.17-1.01-2.67-1.5-4.21-1.38c-1.89,0.14-3.59,1.2-4.55,2.83l-2.21-1.3c1.39-2.35,3.85-3.88,6.57-4.08
			c2.23-0.17,4.38,0.54,6.07,2c1.69,1.46,2.72,3.48,2.88,5.71c0.17,2.22-0.54,4.38-2,6.07C59.14,31.63,57.11,32.65,54.88,32.82z"/>
	</g>
</g>
</svg>
