<?xml version="1.0" encoding="utf-8"?>
<!-- Generator: Adobe Illustrator 27.8.0, SVG Export Plug-In . SVG Version: 6.00 Build 0)  -->
<svg version="1.1" id="Capa_1" xmlns="http://www.w3.org/2000/svg" xmlns:xlink="http://www.w3.org/1999/xlink" x="0px" y="0px"
	 width="64px" height="64px" viewBox="0 0 64 64" style="enable-background:new 0 0 64 64;" xml:space="preserve">
<style type="text/css">
	.st0{fill:#FFFFFF;}
	.st1{fill:#FFFFFF;stroke:#738181;stroke-width:0.5896;stroke-miterlimit:10;}
	.st2{fill:none;stroke:#738181;stroke-width:0.7044;stroke-miterlimit:10;}
	.st3{opacity:0.8;fill:#FFFFFF;stroke:#738181;stroke-width:0.5896;stroke-miterlimit:10;}
	.st4{fill:#FAF3E8;}
	.st5{fill:#FFD366;}
	.st6{fill:none;stroke:#4C8785;stroke-width:0.3177;stroke-miterlimit:10;}
	.st7{fill:none;stroke:#4C8785;stroke-width:0.3177;stroke-linecap:round;stroke-linejoin:round;stroke-miterlimit:10;}
	.st8{fill:#C0DAD8;stroke:#4C8785;stroke-width:0.3347;stroke-miterlimit:10;}
	.st9{fill:#EAA42C;}
	.st10{fill:#3B706D;}
	.st11{fill:#F7A41E;}
	.st12{fill:none;stroke:#4C8785;stroke-width:0.3028;stroke-miterlimit:10;}
	.st13{fill:none;stroke:#4C8785;stroke-width:0.3177;stroke-linecap:round;stroke-miterlimit:10;}
	.st14{fill:#5D9E9B;}
	.st15{clip-path:url(#SVGID_00000031200727050269319910000002067604321064896171_);}
	.st16{fill:#4C8785;}
	.st17{fill:none;stroke:#4C8785;stroke-width:0.4217;stroke-miterlimit:10;}
	.st18{fill:#FFD1AE;}
	.st19{fill:none;stroke:#3B706D;stroke-width:0.4217;stroke-linecap:round;stroke-miterlimit:10;}
	.st20{fill:none;stroke:#C0DAD8;stroke-width:0.2618;stroke-miterlimit:10;}
	.st21{fill:none;stroke:#5B5B5B;stroke-width:0.75;stroke-miterlimit:10;}
	.st22{fill:none;stroke:#2E9E93;stroke-width:1.3171;stroke-linejoin:round;stroke-miterlimit:10;}
	.st23{fill:#2E9E93;}
	.st24{fill:none;stroke:#2E9E93;stroke-width:1.2704;stroke-linejoin:round;stroke-miterlimit:10;}
	.st25{clip-path:url(#SVGID_00000124123452554320234590000000544769987873772702_);}
	.st26{fill:#E9A32C;}
	.st27{fill:#D48112;}
	.st28{fill:#6E5336;}
	.st29{fill:none;stroke:#385C57;stroke-width:0.1456;stroke-miterlimit:10;}
	.st30{fill:#AF754E;}
	.st31{fill:#98633E;}
	.st32{fill:none;stroke:#2E9E93;stroke-width:2.178;stroke-linejoin:round;stroke-miterlimit:10;}
	.st33{clip-path:url(#SVGID_00000031208783957460935260000006863141636772849593_);}
	.st34{clip-path:url(#SVGID_00000073718648500978116530000016237346012974671241_);}
	.st35{fill:none;stroke:#2E9E93;stroke-miterlimit:10;}
	.st36{fill:#FFDC6E;}
	.st37{fill:none;stroke:#2E9E93;stroke-width:0.7343;stroke-linejoin:round;stroke-miterlimit:10;}
	.st38{fill:none;stroke:#2E9E93;stroke-width:0.7614;stroke-linejoin:round;stroke-miterlimit:10;}
	.st39{fill:none;stroke:#2E9E93;stroke-width:0.8249;stroke-linejoin:round;stroke-miterlimit:10;}
	.st40{fill:#D7E6E6;}
	.st41{fill:none;stroke:#4C8785;stroke-width:0.3629;stroke-miterlimit:10;}
	.st42{fill:none;stroke:#3B706D;stroke-width:0.3629;stroke-linecap:round;stroke-miterlimit:10;}
	.st43{fill:none;stroke:#C0DAD8;stroke-width:0.2253;stroke-miterlimit:10;}
	.st44{fill:none;stroke:#4C8785;stroke-width:0.3395;stroke-miterlimit:10;}
	.st45{fill:none;stroke:#4C8785;stroke-width:0.3395;stroke-linecap:round;stroke-linejoin:round;stroke-miterlimit:10;}
	.st46{fill:#C0DAD8;stroke:#4C8785;stroke-width:0.3577;stroke-miterlimit:10;}
	.st47{fill:none;stroke:#4C8785;stroke-width:0.3236;stroke-miterlimit:10;}
	.st48{fill:none;stroke:#4C8785;stroke-width:0.3395;stroke-linecap:round;stroke-miterlimit:10;}
	.st49{fill:none;stroke:#385C57;stroke-width:0.155;stroke-miterlimit:10;}
	.st50{fill:none;stroke:#2E9E93;stroke-width:1.2404;stroke-linejoin:round;stroke-miterlimit:10;}
	.st51{fill:none;stroke:#2E9E93;stroke-width:1.2861;stroke-linejoin:round;stroke-miterlimit:10;}
	.st52{fill:none;stroke:#2E9E93;stroke-width:1.3933;stroke-linejoin:round;stroke-miterlimit:10;}
	.st53{fill:none;stroke:#2E9E93;stroke-width:0.8008;stroke-linejoin:round;stroke-miterlimit:10;}
	.st54{fill:none;stroke:#2E9E93;stroke-width:0.7885;stroke-linejoin:round;stroke-miterlimit:10;}
	.st55{fill:none;stroke:#2E9E93;stroke-linejoin:round;stroke-miterlimit:10;}
	.st56{fill:none;stroke:#2E9E93;stroke-width:1.2181;stroke-linejoin:round;stroke-miterlimit:10;}
	.st57{fill:none;stroke:#2E9E93;stroke-width:2.3498;stroke-linejoin:round;stroke-miterlimit:10;}
	.st58{fill:none;stroke:#2E9E93;stroke-width:2.4365;stroke-linejoin:round;stroke-miterlimit:10;}
	.st59{fill:none;stroke:#2E9E93;stroke-width:2.3955;stroke-linejoin:round;stroke-miterlimit:10;}
	.st60{fill:none;stroke:#2E9E93;stroke-width:2.6396;stroke-linejoin:round;stroke-miterlimit:10;}
	.st61{fill:none;stroke:#2E9E93;stroke-width:2.5627;stroke-linejoin:round;stroke-miterlimit:10;}
	.st62{fill:none;stroke:#2E9E93;stroke-width:2.5231;stroke-linejoin:round;stroke-miterlimit:10;}
	.st63{fill:none;stroke:#2E9E93;stroke-width:2.2817;stroke-linejoin:round;stroke-miterlimit:10;}
	.st64{fill:none;stroke:#2E9E93;stroke-width:2;stroke-linejoin:round;stroke-miterlimit:10;}
	.st65{fill:none;stroke:#2E9E93;stroke-width:2.3829;stroke-linejoin:round;stroke-miterlimit:10;}
	.st66{fill:none;stroke:#2E9E93;stroke-width:2.2222;stroke-linejoin:round;stroke-miterlimit:10;}
	.st67{fill:none;stroke:#2E9E93;stroke-width:0.7447;stroke-linejoin:round;stroke-miterlimit:10;}
	.st68{fill:none;stroke:#2E9E93;stroke-width:0.6944;stroke-linejoin:round;stroke-miterlimit:10;}
	.st69{fill:none;stroke:#2E9E93;stroke-width:0.713;stroke-linejoin:round;stroke-miterlimit:10;}
	.st70{fill:none;stroke:#2E9E93;stroke-width:0.625;stroke-linejoin:round;stroke-miterlimit:10;}
</style>
<g>
	<g>
		<g>
			<path class="st23" d="M29.76,35.14c-1.52,0-3-0.79-3.81-2.2l0,0l-6.27-10.92c-0.58-1.01-0.73-2.19-0.43-3.32
				c0.31-1.12,1.03-2.05,2.04-2.63l0.62-0.35c2.08-1.19,4.75-0.45,5.95,1.63l6.27,10.92c0.58,1.02,0.73,2.19,0.43,3.32
				c-0.31,1.12-1.03,2.05-2.04,2.63l-0.62,0.35C31.23,34.96,30.49,35.14,29.76,35.14z M28.02,31.75c0.55,0.95,1.76,1.29,2.71,0.75
				l0.62-0.35c0.46-0.26,0.78-0.68,0.92-1.18c0.14-0.51,0.07-1.04-0.19-1.51l-6.27-10.92c-0.55-0.95-1.76-1.29-2.71-0.75l-0.62,0.35
				c-0.45,0.26-0.78,0.68-0.92,1.18c-0.14,0.51-0.07,1.04,0.19,1.5L28.02,31.75z"/>
		</g>
		<g>
			<path class="st23" d="M17.7,42c-1.52,0-3-0.79-3.81-2.2L7.63,28.88c-0.58-1.01-0.73-2.19-0.43-3.32
				c0.31-1.12,1.03-2.05,2.04-2.63l0.62-0.35c2.08-1.18,4.75-0.45,5.95,1.63l6.26,10.92c0.58,1.01,0.73,2.19,0.43,3.32
				c-0.31,1.12-1.03,2.05-2.04,2.63l-0.62,0.35C19.17,41.82,18.43,42,17.7,42z M12.01,24.39c-0.33,0-0.67,0.08-0.97,0.26L10.42,25
				c-0.45,0.26-0.78,0.68-0.92,1.18c-0.14,0.51-0.07,1.04,0.19,1.51l6.27,10.92c0,0,0,0,0,0c0.54,0.95,1.76,1.29,2.71,0.75
				l0.62-0.35c0.46-0.26,0.78-0.68,0.92-1.18c0.14-0.51,0.07-1.04-0.19-1.51L13.75,25.4C13.38,24.75,12.7,24.39,12.01,24.39z"/>
		</g>
		<g>
			<path class="st23" d="M24.71,40.2c-1.62,0-3.2-0.84-4.06-2.35l0,0l-7.76-13.53c-0.62-1.08-0.78-2.34-0.45-3.54
				c0.33-1.19,1.1-2.19,2.17-2.8l0.12-0.07c2.22-1.26,5.07-0.49,6.35,1.74l7.76,13.54c0.62,1.08,0.78,2.34,0.45,3.54
				c-0.33,1.19-1.1,2.19-2.17,2.8L27,39.6C26.28,40.01,25.49,40.2,24.71,40.2z M22.72,36.67c0.62,1.09,2.02,1.48,3.1,0.86l0.12-0.07
				c0.52-0.3,0.89-0.78,1.05-1.36c0.16-0.58,0.08-1.2-0.22-1.72l-7.76-13.54c-0.62-1.09-2.01-1.47-3.1-0.86l-0.12,0.07
				c-0.53,0.3-0.9,0.78-1.06,1.36c-0.16,0.58-0.08,1.2,0.22,1.73L22.72,36.67z"/>
		</g>
	</g>
	<g>
		
			<rect x="28.27" y="13.99" transform="matrix(0.8622 -0.5065 0.5065 0.8622 -1.7158 24.0496)" class="st23" width="30.16" height="2.38"/>
	</g>
	<g>
		<path class="st23" d="M23.53,58.22c-2.79,0-5.06-2.12-5.06-4.71c0-0.34,0.04-0.67,0.14-1.04c0.01-0.11,0.04-0.22,0.09-0.33
			l0.08-0.18c0.04-0.12,0.12-0.33,0.23-0.53c3.34-7.75,0.34-10.5,0.31-10.52l1.41-1.72c0.18,0.15,4.38,3.72,0.29,13.2
			c-0.09,0.18-0.13,0.28-0.17,0.38c0,0.01-0.02,0.05-0.03,0.08c0,0.01-0.01,0.03-0.01,0.04c-0.07,0.24-0.1,0.43-0.1,0.61
			c0,1.37,1.27,2.49,2.83,2.49s2.83-1.12,2.83-2.49c0-0.37-0.11-0.75-0.32-1.12c-0.02-0.04-0.04-0.08-0.06-0.12
			c-3.92-9.17-0.85-13.71-0.72-13.9l1.82,1.28c-0.02,0.03-2.43,3.81,0.92,11.7c0.39,0.69,0.59,1.42,0.59,2.17
			C28.58,56.1,26.32,58.22,23.53,58.22z"/>
	</g>
</g>
</svg>
