<?xml version="1.0" encoding="utf-8"?>
<!-- Generator: Adobe Illustrator 27.8.0, SVG Export Plug-In . SVG Version: 6.00 Build 0)  -->
<svg version="1.1" id="Capa_1" xmlns="http://www.w3.org/2000/svg" xmlns:xlink="http://www.w3.org/1999/xlink" x="0px" y="0px"
	 width="64px" height="64px" viewBox="0 0 64 64" style="enable-background:new 0 0 64 64;" xml:space="preserve">
<style type="text/css">
	.st0{fill:#FFFFFF;}
	.st1{fill:#FFFFFF;stroke:#738181;stroke-width:0.5896;stroke-miterlimit:10;}
	.st2{fill:none;stroke:#738181;stroke-width:0.7044;stroke-miterlimit:10;}
	.st3{opacity:0.8;fill:#FFFFFF;stroke:#738181;stroke-width:0.5896;stroke-miterlimit:10;}
	.st4{fill:#FAF3E8;}
	.st5{fill:#FFD366;}
	.st6{fill:none;stroke:#4C8785;stroke-width:0.3177;stroke-miterlimit:10;}
	.st7{fill:none;stroke:#4C8785;stroke-width:0.3177;stroke-linecap:round;stroke-linejoin:round;stroke-miterlimit:10;}
	.st8{fill:#C0DAD8;stroke:#4C8785;stroke-width:0.3347;stroke-miterlimit:10;}
	.st9{fill:#EAA42C;}
	.st10{fill:#3B706D;}
	.st11{fill:#F7A41E;}
	.st12{fill:none;stroke:#4C8785;stroke-width:0.3028;stroke-miterlimit:10;}
	.st13{fill:none;stroke:#4C8785;stroke-width:0.3177;stroke-linecap:round;stroke-miterlimit:10;}
	.st14{fill:#5D9E9B;}
	.st15{clip-path:url(#SVGID_00000182494398045863266270000006328929296011249080_);}
	.st16{fill:#4C8785;}
	.st17{fill:none;stroke:#4C8785;stroke-width:0.4217;stroke-miterlimit:10;}
	.st18{fill:#FFD1AE;}
	.st19{fill:none;stroke:#3B706D;stroke-width:0.4217;stroke-linecap:round;stroke-miterlimit:10;}
	.st20{fill:none;stroke:#C0DAD8;stroke-width:0.2618;stroke-miterlimit:10;}
	.st21{fill:none;stroke:#5B5B5B;stroke-width:0.75;stroke-miterlimit:10;}
	.st22{fill:none;stroke:#2E9E93;stroke-width:1.3171;stroke-linejoin:round;stroke-miterlimit:10;}
	.st23{fill:#2E9E93;}
	.st24{fill:none;stroke:#2E9E93;stroke-width:1.2704;stroke-linejoin:round;stroke-miterlimit:10;}
	.st25{clip-path:url(#SVGID_00000162350279037290881720000009057730982478139794_);}
	.st26{fill:#E9A32C;}
	.st27{fill:#D48112;}
	.st28{fill:#6E5336;}
	.st29{fill:none;stroke:#385C57;stroke-width:0.1456;stroke-miterlimit:10;}
	.st30{fill:#AF754E;}
	.st31{fill:#98633E;}
	.st32{fill:none;stroke:#2E9E93;stroke-width:2.178;stroke-linejoin:round;stroke-miterlimit:10;}
	.st33{clip-path:url(#SVGID_00000175296509779317557930000015754197564353402009_);}
	.st34{clip-path:url(#SVGID_00000057856024946379296040000017611871474605002136_);}
	.st35{fill:none;stroke:#2E9E93;stroke-miterlimit:10;}
	.st36{fill:#FFDC6E;}
	.st37{fill:none;stroke:#2E9E93;stroke-width:0.7343;stroke-linejoin:round;stroke-miterlimit:10;}
	.st38{fill:none;stroke:#2E9E93;stroke-width:0.7614;stroke-linejoin:round;stroke-miterlimit:10;}
	.st39{fill:none;stroke:#2E9E93;stroke-width:0.8249;stroke-linejoin:round;stroke-miterlimit:10;}
	.st40{fill:#D7E6E6;}
	.st41{fill:none;stroke:#4C8785;stroke-width:0.3629;stroke-miterlimit:10;}
	.st42{fill:none;stroke:#3B706D;stroke-width:0.3629;stroke-linecap:round;stroke-miterlimit:10;}
	.st43{fill:none;stroke:#C0DAD8;stroke-width:0.2253;stroke-miterlimit:10;}
	.st44{fill:none;stroke:#4C8785;stroke-width:0.3395;stroke-miterlimit:10;}
	.st45{fill:none;stroke:#4C8785;stroke-width:0.3395;stroke-linecap:round;stroke-linejoin:round;stroke-miterlimit:10;}
	.st46{fill:#C0DAD8;stroke:#4C8785;stroke-width:0.3577;stroke-miterlimit:10;}
	.st47{fill:none;stroke:#4C8785;stroke-width:0.3236;stroke-miterlimit:10;}
	.st48{fill:none;stroke:#4C8785;stroke-width:0.3395;stroke-linecap:round;stroke-miterlimit:10;}
	.st49{fill:none;stroke:#385C57;stroke-width:0.155;stroke-miterlimit:10;}
	.st50{fill:none;stroke:#2E9E93;stroke-width:1.2404;stroke-linejoin:round;stroke-miterlimit:10;}
	.st51{fill:none;stroke:#2E9E93;stroke-width:1.2861;stroke-linejoin:round;stroke-miterlimit:10;}
	.st52{fill:none;stroke:#2E9E93;stroke-width:1.3933;stroke-linejoin:round;stroke-miterlimit:10;}
	.st53{fill:none;stroke:#2E9E93;stroke-width:0.8008;stroke-linejoin:round;stroke-miterlimit:10;}
	.st54{fill:none;stroke:#2E9E93;stroke-width:0.7885;stroke-linejoin:round;stroke-miterlimit:10;}
	.st55{fill:none;stroke:#2E9E93;stroke-linejoin:round;stroke-miterlimit:10;}
	.st56{fill:none;stroke:#2E9E93;stroke-width:1.2181;stroke-linejoin:round;stroke-miterlimit:10;}
	.st57{fill:none;stroke:#2E9E93;stroke-width:2.3498;stroke-linejoin:round;stroke-miterlimit:10;}
	.st58{fill:none;stroke:#2E9E93;stroke-width:2.4365;stroke-linejoin:round;stroke-miterlimit:10;}
	.st59{fill:none;stroke:#2E9E93;stroke-width:2.3955;stroke-linejoin:round;stroke-miterlimit:10;}
	.st60{fill:none;stroke:#2E9E93;stroke-width:2.6396;stroke-linejoin:round;stroke-miterlimit:10;}
	.st61{fill:none;stroke:#2E9E93;stroke-width:2.5627;stroke-linejoin:round;stroke-miterlimit:10;}
	.st62{fill:none;stroke:#2E9E93;stroke-width:2.5231;stroke-linejoin:round;stroke-miterlimit:10;}
	.st63{fill:none;stroke:#2E9E93;stroke-width:2.2817;stroke-linejoin:round;stroke-miterlimit:10;}
	.st64{fill:none;stroke:#2E9E93;stroke-width:2;stroke-linejoin:round;stroke-miterlimit:10;}
	.st65{fill:none;stroke:#2E9E93;stroke-width:2.3829;stroke-linejoin:round;stroke-miterlimit:10;}
	.st66{fill:none;stroke:#2E9E93;stroke-width:2.2222;stroke-linejoin:round;stroke-miterlimit:10;}
	.st67{fill:none;stroke:#2E9E93;stroke-width:0.7447;stroke-linejoin:round;stroke-miterlimit:10;}
	.st68{fill:none;stroke:#2E9E93;stroke-width:0.6944;stroke-linejoin:round;stroke-miterlimit:10;}
	.st69{fill:none;stroke:#2E9E93;stroke-width:0.713;stroke-linejoin:round;stroke-miterlimit:10;}
	.st70{fill:none;stroke:#2E9E93;stroke-width:0.625;stroke-linejoin:round;stroke-miterlimit:10;}
</style>
<g>
	<g>
		<path class="st23" d="M20.54,56.65c-3.32,0-6.17-0.84-8.53-2.52c-5.39-3.84-6.07-10.61-6.1-10.89c-0.95-9.3,2.78-14.8,11.39-16.8
			l2.62-0.51c1.99-0.34,7.45-1.35,9.14-1.97c0.58-0.21,1.12-0.41,1.63-0.59c4.54-1.62,6.62-2.35,12.73-10.99
			c1.28-1.81,3.04-2.79,5.08-2.86c2.65-0.08,5.64,1.48,7.64,3.97c4.97,6.37-0.06,15.62-3.07,21.14l-0.35,0.65
			c-0.46,0.91-8.36,16.2-26.21,20.59C24.39,56.39,22.39,56.65,20.54,56.65z M48.7,11.91c-0.04,0-0.08,0-0.13,0
			c-1.29,0.04-2.36,0.66-3.2,1.85c-6.55,9.26-9,10.13-13.88,11.87c-0.5,0.18-1.03,0.37-1.6,0.58c-2.24,0.83-9.25,2.03-9.54,2.08
			l-2.55,0.49C10.41,30.5,7.46,34.89,8.29,43c0.01,0.07,0.63,6,5.12,9.19c3.08,2.18,7.29,2.63,12.54,1.35
			c16.89-4.15,24.57-19.2,24.64-19.35c0.01-0.01,0.01-0.03,0.02-0.04l0.36-0.67c2.72-5.01,7.28-13.39,3.29-18.51
			C52.78,13.13,50.56,11.91,48.7,11.91z"/>
	</g>
	<g>
		<path class="st23" d="M53.68,32.13c-0.07,0-0.14-0.01-0.21-0.02c-0.49-0.09-0.88-0.47-0.97-0.96l-1.08-5.74l-3.78,2.2
			c-0.36,0.21-0.8,0.22-1.17,0.02c-0.37-0.2-0.61-0.57-0.63-0.99l-0.27-4.59l-3.81,0.98c-0.36,0.1-0.74,0.01-1.04-0.21
			c-0.29-0.23-0.46-0.58-0.46-0.95l0.04-4.91l2.39,0.02l-0.02,3.35l3.71-0.96c0.34-0.09,0.72-0.02,1.01,0.19
			c0.29,0.21,0.47,0.54,0.49,0.9l0.24,4.1l3.56-2.07c0.34-0.2,0.75-0.22,1.1-0.05c0.35,0.16,0.61,0.49,0.68,0.87l0.71,3.75
			c1.01-2.65,1.98-6.47,0.88-9.75c-0.79-2.37-2.62-4.16-5.41-5.32l0.91-2.21c3.47,1.43,5.75,3.71,6.77,6.78
			c2.23,6.69-2.42,14.65-2.62,14.99C54.49,31.91,54.1,32.13,53.68,32.13z"/>
	</g>
	<g>
		
			<rect x="50.16" y="8.72" transform="matrix(0.4508 -0.8926 0.8926 0.4508 20.4318 53.0366)" class="st23" width="6.31" height="2.4"/>
	</g>
</g>
</svg>
